<svg width="34" height="34" viewBox="0 0 34 34" fill="none" xmlns="http://www.w3.org/2000/svg">
<path fill-rule="evenodd" clip-rule="evenodd" d="M17 34C26.3888 34 34 26.3888 34 17C34 7.61116 26.3888 0 17 0C7.61116 0 0 7.61116 0 17C0 26.3888 7.61116 34 17 34ZM5.06948 15.5446C5.65352 10.1336 9.97542 5.68446 15.3486 5.08323C22.3571 4.24151 28.3143 9.89307 28.3143 17.1078C28.3143 22.1582 25.2773 26.487 20.9554 28.2907C20.4881 28.4109 20.1377 28.0502 20.1377 27.6895V24.5631C20.1377 23.4809 19.6705 22.3986 18.9696 21.7974C21.6562 21.1962 23.642 19.633 23.642 16.9876C23.642 15.5446 23.0579 14.3422 22.2403 13.3802C22.3571 13.1397 22.4739 12.6587 22.4739 11.6968V10.1336C22.3571 9.89307 22.2403 9.77282 22.0067 9.77282H21.8898C21.3058 9.89307 20.0209 10.2538 18.9696 11.336C18.2688 11.0955 17.4511 10.9753 16.6335 10.9753C15.8158 10.9753 14.9982 11.0955 14.2973 11.336C13.246 10.2538 12.078 9.89307 11.4939 9.77282H11.3771C11.2603 9.77282 11.0267 9.89307 11.0267 10.1336C10.7931 10.6145 10.7931 11.2158 10.7931 11.6968C10.7931 12.5385 10.9099 13.1397 11.0267 13.3802C10.209 14.3422 9.62499 15.6649 9.62499 16.9876C9.62499 19.633 11.6107 21.1962 14.2973 21.7974C13.5965 22.2784 13.246 23.1201 13.1292 23.9618C12.8956 24.0821 12.5452 24.2023 12.078 24.2023C11.7275 24.2023 11.0267 23.9618 10.4427 22.9999C10.209 22.6391 9.62499 21.7974 8.92415 21.7974C8.80734 21.7974 8.45691 21.7974 8.45691 22.0379C8.45691 22.1302 8.52573 22.1517 8.7162 22.211C8.77387 22.229 8.8427 22.2505 8.92415 22.2784C9.27457 22.6391 9.50819 22.9999 9.62499 23.4809C9.7418 24.3226 10.4427 25.7655 12.078 25.7655C12.662 25.7655 13.1292 25.6453 13.1292 25.6453V27.5692C13.1292 28.0502 12.7788 28.2907 12.4284 28.1705C7.63926 26.2465 4.48544 21.1962 5.06948 15.5446Z" fill="white"/>
</svg>
