<svg width="34" height="34" viewBox="0 0 34 34" fill="none" xmlns="http://www.w3.org/2000/svg">
<path fill-rule="evenodd" clip-rule="evenodd" d="M17 34C26.3888 34 34 26.3888 34 17C34 7.61116 26.3888 0 17 0C7.61116 0 0 7.61116 0 17C0 26.3888 7.61116 34 17 34ZM23.4195 8.16991C23.7806 8.02717 24.1399 7.97554 24.4706 8.0106C24.8012 8.04566 25.1017 8.1675 25.3429 8.37391C25.6244 8.61563 26.0626 9.18274 25.8189 10.276C25.8189 10.274 23.1038 23.9038 23.0212 24.3285C22.869 25.1034 22.1394 25.9042 21.1775 25.9042C20.4065 25.9042 19.8326 25.3462 19.7242 25.2358L16.909 22.6324L14.5912 24.5927C14.4361 24.7121 14.1188 24.9172 13.6781 24.9172C13.5259 24.9172 13.3764 24.8921 13.2332 24.8434C12.5349 24.6394 12.2585 23.7674 12.1491 23.4212C11.969 22.8499 11.2641 20.7351 10.9384 19.7579L10.9173 19.6948L7.27062 18.2338C6.22018 17.818 6 17.1124 6 16.5921C6 15.8491 6.42239 15.2974 7.25896 14.9582L9.4194 14.0489C15.9578 11.2965 22.9719 8.34598 23.4195 8.16991ZM23.6573 10.9348C23.7227 10.6069 23.7753 10.3431 23.812 10.1594C22.1381 10.8555 14.9314 13.8898 10.596 15.7151L10.1926 15.8849L8.51403 16.5902L11.9723 17.9715C14.356 16.6156 19.1989 13.8565 20.3362 13.1475C20.3472 13.1406 20.3594 13.1328 20.3726 13.1244C20.4665 13.0643 20.6099 12.9726 20.719 12.9726C20.8572 12.9726 20.9171 13.0563 20.9171 13.1727C20.9171 13.2603 20.863 13.3485 20.6043 13.6001C20.283 13.9145 14.9487 19.314 14.9487 19.314L14.1755 22.339L16.9673 19.9746L21.0823 23.7806C21.3623 22.446 23.0539 13.9614 23.6573 10.9348Z" fill="white"/>
</svg>
