<svg width="40" height="40" viewBox="0 0 40 40" fill="none" xmlns="http://www.w3.org/2000/svg">
<path d="M28.8666 24.4333C28.6105 24.4333 28.3548 24.3356 28.1595 24.1403L20 15.9809L11.8402 24.1403C11.45 24.5309 10.8167 24.5309 10.4261 24.1403C10.0355 23.75 10.0355 23.1167 10.4261 22.7262L19.2931 13.8595C19.4806 13.672 19.735 13.5666 20.0002 13.5666C20.2653 13.5666 20.5197 13.672 20.7072 13.8595L29.5736 22.7262C29.9642 23.1167 29.9642 23.75 29.5736 24.1403C29.3783 24.3356 29.1223 24.4333 28.8666 24.4333ZM40 20C40 8.97187 31.0281 0 20 0C8.97187 0 0 8.97187 0 20C0 31.0281 8.97187 40 20 40C31.0281 40 40 31.0281 40 20ZM38 20C38 29.9252 29.9252 38 20 38C10.0747 38 2 29.9252 2 20C2 10.0747 10.0747 2 20 2C29.9252 2 38 10.0747 38 20Z" fill="black"/>
</svg>
